<svg width="100%" height="100%" viewBox="0 0 160 120" fill="none" xmlns="http://www.w3.org/2000/svg">

  <path d="M 80 40
           C 60 28 34 34 24 46
           V 116
           C 34 104 60 98 80 110"
        stroke="#111111" stroke-width="4" stroke-linecap="round" stroke-linejoin="round"/>

  <path d="M 80 40
           C 100 28 126 34 136 46
           V 116
           C 126 104 100 98 80 110"
        stroke="#111111" stroke-width="4" stroke-linecap="round" stroke-linejoin="round"/>

  <line x1="80" y1="40" x2="80" y2="56" stroke="#111111" stroke-width="2.5" stroke-linecap="round"/>
  <line x1="80" y1="90" x2="80" y2="110" stroke="#111111" stroke-width="2.5" stroke-linecap="round"/>

  <text x="55" y="65"
        text-anchor="middle"
        font-family="sans-serif"
        font-size="30"
        font-weight="600"
        fill="#111111"
        letter-spacing="1.5">DS</text>


  <path d="M 80 40
           C 60 28 34 34 24 46
           V 116
           C 34 104 60 98 80 110"
        stroke="#111111" stroke-width="4" stroke-linecap="round" stroke-linejoin="round"/>


  <path d="M36 75 C48 67 60 67 72 75"
        stroke="#333333" stroke-width="2.5"
        fill="none" stroke-linecap="round"/>

  <path d="M36 90 C48 82 60 82 72 90"
        stroke="#333333" stroke-width="2.5"
        fill="none" stroke-linecap="round"/>


  <path d="M88 60 C100 52 112 52 124 60"
      stroke="#333333" stroke-width="2.5"
      fill="none" stroke-linecap="round"/>

  <path d="M88 75 C100 67 112 67 124 75"
      stroke="#333333" stroke-width="2.5"
      fill="none" stroke-linecap="round"/>


<path d="M88 90 C100 82 112 82 124 90"
      stroke="#333333" stroke-width="2.5"
      fill="none" stroke-linecap="round"/>

</svg>